<?xml version="1.0" encoding="UTF-8"?>
<!DOCTYPE svg  PUBLIC '-//W3C//DTD SVG 1.1//EN'  'http://www.w3.org/Graphics/SVG/1.1/DTD/svg11.dtd'>
<svg clip-rule="evenodd" fill-rule="evenodd" stroke-linejoin="round" stroke-miterlimit="2" version="1.1" viewBox="0 0 36 36" xml:space="preserve" xmlns="http://www.w3.org/2000/svg">
    <g transform="translate(-6 -6)">
        <path d="m16 6c-5.522 0-10 4.478-10 10v16c0 5.522 4.478 10 10 10h16c5.522 0 10-4.478 10-10v-16c0-5.522-4.478-10-10-10h-16zm20 4c1.104 0 2 0.896 2 2s-0.896 2-2 2-2-0.896-2-2 0.896-2 2-2zm-12 4c5.522 0 10 4.478 10 10s-4.478 10-10 10-10-4.478-10-10 4.478-10 10-10zm0 4c-3.292 0-6 2.708-6 6s2.708 6 6 6 6-2.708 6-6-2.708-6-6-6z" fill-rule="nonzero"/>
    </g>
</svg>
