<?xml version="1.0" encoding="UTF-8"?>
<!DOCTYPE svg  PUBLIC '-//W3C//DTD SVG 1.1//EN'  'http://www.w3.org/Graphics/SVG/1.1/DTD/svg11.dtd'>
<svg clip-rule="evenodd" fill-rule="evenodd" stroke-linejoin="round" stroke-miterlimit="2" version="1.1" viewBox="0 0 40 40" xml:space="preserve" xmlns="http://www.w3.org/2000/svg">
    <g transform="translate(-4 -4)">
        <path d="m38.154 9.856c-3.772-3.774-8.788-5.854-14.132-5.856-11.012 0-19.974 8.958-19.978 19.97-2e-3 3.52 0.918 6.956 2.666 9.984l-2.71 10.046 10.466-2.474c2.918 1.592 6.202 2.43 9.546 2.432h8e-3c11.01 0 19.972-8.96 19.978-19.97 4e-3 -5.338-2.072-10.356-5.844-14.132zm-4.358 21.252c-0.416 1.166-2.454 2.29-3.37 2.372-0.916 0.084-1.774 0.414-5.99-1.248-5.074-2-8.278-7.202-8.526-7.534-0.25-0.334-2.038-2.706-2.038-5.162s1.29-3.664 1.748-4.162c0.458-0.5 0.998-0.624 1.332-0.624 0.332 0 0.666 0 0.956 0.012 0.356 0.014 0.75 0.032 1.124 0.862 0.444 0.988 1.414 3.456 1.538 3.706s0.208 0.542 0.042 0.874-0.25 0.54-0.498 0.832c-0.25 0.292-0.524 0.65-0.748 0.874-0.25 0.248-0.51 0.52-0.22 1.018 0.292 0.5 1.292 2.134 2.776 3.456 1.908 1.7 3.514 2.226 4.014 2.478 0.5 0.25 0.79 0.208 1.082-0.126 0.292-0.332 1.248-1.456 1.58-1.956s0.666-0.416 1.124-0.25 2.912 1.374 3.41 1.624c0.5 0.25 0.832 0.374 0.956 0.582 0.124 0.206 0.124 1.206-0.292 2.372z" fill-rule="nonzero"/>
    </g>
</svg>
